<svg width="75" height="75" viewBox="0 0 75 75" fill="none" xmlns="http://www.w3.org/2000/svg">
<path d="M57.1875 41.25C57.1875 42.4932 56.6936 43.6855 55.8146 44.5646C54.9355 45.4436 53.7432 45.9375 52.5 45.9375C51.2568 45.9375 50.0645 45.4436 49.1854 44.5646C48.3064 43.6855 47.8125 42.4932 47.8125 41.25C47.8125 40.0068 48.3064 38.8145 49.1854 37.9354C50.0645 37.0564 51.2568 36.5625 52.5 36.5625C53.7432 36.5625 54.9355 37.0564 55.8146 37.9354C56.6936 38.8145 57.1875 40.0068 57.1875 41.25ZM75 37.5C75 58.125 58.125 75 37.5 75H0V37.5C0 16.875 16.875 0 37.5 0C58.125 0 75 16.875 75 37.5ZM18.75 60C24.0375 64.6125 30 67.5 37.5 67.5C54.0375 67.5 67.5 54.0375 67.5 37.5C67.5 34.5375 67.05 31.6875 66.2625 29.025C63.5625 29.6625 60.75 30 57.825 30C50.325 30 43.3875 27.75 37.5 23.9625C37.5 23.9625 32.025 44.1 22.6125 41.25C20.1375 40.5 18.75 42.4125 18.75 45" fill="black"/>
</svg>
